<svg class="railroad-diagram" height="169" viewBox="0 0 682 169" width="682">
    <g transform="translate(.5 .5)">
        <path d="M 20 41 v 20 m 10 -20 v 20 m -10 -10 h 20.5"/>
        <g>
            <path d="M40 51h0"/>
            <path d="M108 51h0"/>
            <path d="M40 51a10 10 0 0 0 10 -10v0a10 10 0 0 1 10 -10"/>
            <g class="terminal">
                <path d="M60 31h0"/>
                <path d="M88 31h0"/>
                <rect height="22" rx="10" ry="10" width="28" x="60" y="20"/>
                <text x="74" y="35">+</text>
            </g>
            <path d="M88 31a10 10 0 0 1 10 10v0a10 10 0 0 0 10 10"/>
            <path d="M40 51h20"/>
            <g>
                <path d="M60 51h28"/>
            </g>
            <path d="M88 51h20"/>
            <path d="M40 51a10 10 0 0 1 10 10v0a10 10 0 0 0 10 10"/>
            <g class="terminal">
                <path d="M60 71h0"/>
                <path d="M88 71h0"/>
                <rect height="22" rx="10" ry="10" width="28" x="60" y="60"/>
                <text x="74" y="75">-</text>
            </g>
            <path d="M88 71a10 10 0 0 0 10 -10v0a10 10 0 0 1 10 -10"/>
        </g>
        <g>
            <path d="M108 51h0"/>
            <path d="M376 51h0"/>
            <path d="M108 51h20"/>
            <g>
                <path d="M128 51h0"/>
                <path d="M356 51h0"/>
                <g>
                    <path d="M128 51h0"/>
                    <path d="M208 51h0"/>
                    <path d="M128 51h10"/>
                    <g class="non-terminal">
                        <path d="M138 51h0"/>
                        <path d="M198 51h0"/>
                        <rect height="22" width="60" x="138" y="40"/>
                        <text x="168" y="55">digit</text>
                    </g>
                    <path d="M198 51h10"/>
                    <path d="M138 51a10 10 0 0 0 -10 10v0a10 10 0 0 0 10 10"/>
                    <g>
                        <path d="M138 71h60"/>
                    </g>
                    <path d="M198 71a10 10 0 0 0 10 -10v0a10 10 0 0 0 -10 -10"/>
                </g>
                <path d="M208 51h10"/>
                <path d="M218 51h10"/>
                <g class="terminal">
                    <path d="M228 51h0"/>
                    <path d="M256 51h0"/>
                    <rect height="22" rx="10" ry="10" width="28" x="228" y="40"/>
                    <text x="242" y="55">.</text>
                </g>
                <path d="M256 51h10"/>
                <path d="M266 51h10"/>
                <g>
                    <path d="M276 51h0"/>
                    <path d="M356 51h0"/>
                    <path d="M276 51h10"/>
                    <g class="non-terminal">
                        <path d="M286 51h0"/>
                        <path d="M346 51h0"/>
                        <rect height="22" width="60" x="286" y="40"/>
                        <text x="316" y="55">digit</text>
                    </g>
                    <path d="M346 51h10"/>
                    <path d="M286 51a10 10 0 0 0 -10 10v0a10 10 0 0 0 10 10"/>
                    <g>
                        <path d="M286 71h60"/>
                    </g>
                    <path d="M346 71a10 10 0 0 0 10 -10v0a10 10 0 0 0 -10 -10"/>
                </g>
            </g>
            <path d="M356 51h20"/>
            <path d="M108 51a10 10 0 0 1 10 10v19a10 10 0 0 0 10 10"/>
            <g>
                <path d="M128 90h74"/>
                <path d="M282 90h74"/>
                <path d="M202 90h10"/>
                <g class="non-terminal">
                    <path d="M212 90h0"/>
                    <path d="M272 90h0"/>
                    <rect height="22" width="60" x="212" y="79"/>
                    <text x="242" y="94">digit</text>
                </g>
                <path d="M272 90h10"/>
                <path d="M212 90a10 10 0 0 0 -10 10v0a10 10 0 0 0 10 10"/>
                <g>
                    <path d="M212 110h60"/>
                </g>
                <path d="M272 110a10 10 0 0 0 10 -10v0a10 10 0 0 0 -10 -10"/>
            </g>
            <path d="M356 90a10 10 0 0 0 10 -10v-19a10 10 0 0 1 10 -10"/>
            <path d="M108 51a10 10 0 0 1 10 10v58a10 10 0 0 0 10 10"/>
            <g>
                <path d="M128 129h50"/>
                <path d="M306 129h50"/>
                <g class="terminal">
                    <path d="M178 129h0"/>
                    <path d="M206 129h0"/>
                    <rect height="22" rx="10" ry="10" width="28" x="178" y="118"/>
                    <text x="192" y="133">.</text>
                </g>
                <path d="M206 129h10"/>
                <path d="M216 129h10"/>
                <g>
                    <path d="M226 129h0"/>
                    <path d="M306 129h0"/>
                    <path d="M226 129h10"/>
                    <g class="non-terminal">
                        <path d="M236 129h0"/>
                        <path d="M296 129h0"/>
                        <rect height="22" width="60" x="236" y="118"/>
                        <text x="266" y="133">digit</text>
                    </g>
                    <path d="M296 129h10"/>
                    <path d="M236 129a10 10 0 0 0 -10 10v0a10 10 0 0 0 10 10"/>
                    <g>
                        <path d="M236 149h60"/>
                    </g>
                    <path d="M296 149a10 10 0 0 0 10 -10v0a10 10 0 0 0 -10 -10"/>
                </g>
            </g>
            <path d="M356 129a10 10 0 0 0 10 -10v-58a10 10 0 0 1 10 -10"/>
        </g>
        <g>
            <path d="M376 51h0"/>
            <path d="M642 51h0"/>
            <path d="M376 51h20"/>
            <g>
                <path d="M396 51h226"/>
            </g>
            <path d="M622 51h20"/>
            <path d="M376 51a10 10 0 0 1 10 10v19a10 10 0 0 0 10 10"/>
            <g>
                <path d="M396 90h0"/>
                <path d="M622 90h0"/>
                <g>
                    <path d="M396 90h0"/>
                    <path d="M464 90h0"/>
                    <path d="M396 90h20"/>
                    <g class="terminal">
                        <path d="M416 90h0"/>
                        <path d="M444 90h0"/>
                        <rect height="22" rx="10" ry="10" width="28" x="416" y="79"/>
                        <text x="430" y="94">e</text>
                    </g>
                    <path d="M444 90h20"/>
                    <path d="M396 90a10 10 0 0 1 10 10v10a10 10 0 0 0 10 10"/>
                    <g class="terminal">
                        <path d="M416 120h0"/>
                        <path d="M444 120h0"/>
                        <rect height="22" rx="10" ry="10" width="28" x="416" y="109"/>
                        <text x="430" y="124">E</text>
                    </g>
                    <path d="M444 120a10 10 0 0 0 10 -10v-10a10 10 0 0 1 10 -10"/>
                </g>
                <g>
                    <path d="M464 90h0"/>
                    <path d="M532 90h0"/>
                    <path d="M464 90a10 10 0 0 0 10 -10v0a10 10 0 0 1 10 -10"/>
                    <g class="terminal">
                        <path d="M484 70h0"/>
                        <path d="M512 70h0"/>
                        <rect height="22" rx="10" ry="10" width="28" x="484" y="59"/>
                        <text x="498" y="74">+</text>
                    </g>
                    <path d="M512 70a10 10 0 0 1 10 10v0a10 10 0 0 0 10 10"/>
                    <path d="M464 90h20"/>
                    <g>
                        <path d="M484 90h28"/>
                    </g>
                    <path d="M512 90h20"/>
                    <path d="M464 90a10 10 0 0 1 10 10v0a10 10 0 0 0 10 10"/>
                    <g class="terminal">
                        <path d="M484 110h0"/>
                        <path d="M512 110h0"/>
                        <rect height="22" rx="10" ry="10" width="28" x="484" y="99"/>
                        <text x="498" y="114">-</text>
                    </g>
                    <path d="M512 110a10 10 0 0 0 10 -10v0a10 10 0 0 1 10 -10"/>
                </g>
                <path d="M532 90h10"/>
                <g>
                    <path d="M542 90h0"/>
                    <path d="M622 90h0"/>
                    <path d="M542 90h10"/>
                    <g class="non-terminal">
                        <path d="M552 90h0"/>
                        <path d="M612 90h0"/>
                        <rect height="22" width="60" x="552" y="79"/>
                        <text x="582" y="94">digit</text>
                    </g>
                    <path d="M612 90h10"/>
                    <path d="M552 90a10 10 0 0 0 -10 10v0a10 10 0 0 0 10 10"/>
                    <g>
                        <path d="M552 110h60"/>
                    </g>
                    <path d="M612 110a10 10 0 0 0 10 -10v0a10 10 0 0 0 -10 -10"/>
                </g>
            </g>
            <path d="M622 90a10 10 0 0 0 10 -10v-19a10 10 0 0 1 10 -10"/>
        </g>
        <path d="M 642 51 h 20 m -10 -10 v 20 m 10 -20 v 20"/>
    </g>
</svg>