<svg width="454" height="89" viewBox="0 0 454 89" fill="none" xmlns="http://www.w3.org/2000/svg">
    <rect width="454" height="89" fill="#2B2B2B"/>
    <path d="M36.5586 67.2656H40.6836V72H36.5586V67.2656ZM145.32 72.5977V74.2852H144.57C142.625 74.2852 141.32 73.9961 140.656 73.418C140 72.8398 139.672 71.6875 139.672 69.9609V67.6172C139.672 66.7656 139.43 66.0312 138.945 65.4141C138.469 64.7969 137.727 64.4883 136.719 64.4883H135.289V62.8125H136.719C137.82 62.8125 138.586 62.5508 139.016 62.0273C139.453 61.5039 139.672 60.7344 139.672 59.7188V56.6719C139.672 54.9453 140 53.7969 140.656 53.2266C141.32 52.6484 142.625 52.3594 144.57 52.3594H145.32V54.0352H144.5C143.406 54.0352 142.691 54.207 142.355 54.5508C142.027 54.8867 141.863 55.6094 141.863 56.7188V59.8594C141.863 61.2344 141.594 62.1602 141.055 62.6367C140.516 63.1055 139.465 63.4453 137.902 63.6562C139.418 63.8359 140.457 64.1836 141.02 64.6992C141.582 65.207 141.863 66.1289 141.863 67.4648V69.9141C141.863 71.0312 142.027 71.7578 142.355 72.0938C142.691 72.4297 143.406 72.5977 144.5 72.5977H145.32ZM172.906 65.4492C172.906 63.7773 172.641 62.5156 172.109 61.6641C171.578 60.8125 170.793 60.3867 169.754 60.3867C168.707 60.3867 167.914 60.8164 167.375 61.6758C166.836 62.5273 166.566 63.7852 166.566 65.4492C166.566 67.1055 166.836 68.3633 167.375 69.2227C167.914 70.082 168.707 70.5117 169.754 70.5117C170.793 70.5117 171.578 70.0859 172.109 69.2344C172.641 68.3828 172.906 67.1211 172.906 65.4492ZM166.566 60.5508C166.91 59.9102 167.383 59.418 167.984 59.0742C168.594 58.7305 169.297 58.5586 170.094 58.5586C171.672 58.5586 172.914 59.168 173.82 60.3867C174.727 61.5977 175.18 63.2695 175.18 65.4023C175.18 67.5664 174.723 69.2656 173.809 70.5C172.902 71.7266 171.656 72.3398 170.07 72.3398C169.289 72.3398 168.598 72.1719 167.996 71.8359C167.402 71.4922 166.926 70.9961 166.566 70.3477V72H164.41V53.7656H166.566V60.5508ZM184.836 65.4023H184.121C182.863 65.4023 181.914 65.625 181.273 66.0703C180.641 66.5078 180.324 67.1641 180.324 68.0391C180.324 68.8281 180.562 69.4414 181.039 69.8789C181.516 70.3164 182.176 70.5352 183.02 70.5352C184.207 70.5352 185.141 70.125 185.82 69.3047C186.5 68.4766 186.844 67.3359 186.852 65.8828V65.4023H184.836ZM189.02 64.5117V72H186.852V70.0547C186.391 70.8359 185.809 71.4141 185.105 71.7891C184.41 72.1562 183.562 72.3398 182.562 72.3398C181.227 72.3398 180.16 71.9648 179.363 71.2148C178.566 70.457 178.168 69.4453 178.168 68.1797C178.168 66.7188 178.656 65.6094 179.633 64.8516C180.617 64.0938 182.059 63.7148 183.957 63.7148H186.852V63.375C186.844 62.3281 186.578 61.5703 186.055 61.1016C185.531 60.625 184.695 60.3867 183.547 60.3867C182.812 60.3867 182.07 60.4922 181.32 60.7031C180.57 60.9141 179.84 61.2227 179.129 61.6289V59.4727C179.926 59.168 180.688 58.9414 181.414 58.793C182.148 58.6367 182.859 58.5586 183.547 58.5586C184.633 58.5586 185.559 58.7188 186.324 59.0391C187.098 59.3594 187.723 59.8398 188.199 60.4805C188.496 60.8711 188.707 61.3555 188.832 61.9336C188.957 62.5039 189.02 63.3633 189.02 64.5117ZM203.504 71.332C202.926 71.668 202.328 71.918 201.711 72.082C201.102 72.2539 200.477 72.3398 199.836 72.3398C197.805 72.3398 196.215 71.7305 195.066 70.5117C193.926 69.293 193.355 67.6055 193.355 65.4492C193.355 63.293 193.926 61.6055 195.066 60.3867C196.215 59.168 197.805 58.5586 199.836 58.5586C200.469 58.5586 201.086 58.6406 201.688 58.8047C202.289 58.9688 202.895 59.2227 203.504 59.5664V61.8281C202.934 61.3203 202.359 60.9531 201.781 60.7266C201.211 60.5 200.562 60.3867 199.836 60.3867C198.484 60.3867 197.445 60.8242 196.719 61.6992C195.992 62.5742 195.629 63.8242 195.629 65.4492C195.629 67.0664 195.992 68.3164 196.719 69.1992C197.453 70.0742 198.492 70.5117 199.836 70.5117C200.586 70.5117 201.258 70.3984 201.852 70.1719C202.445 69.9375 202.996 69.5781 203.504 69.0938V71.332ZM208.297 53.7656H210.523V64.3242L216.184 58.875H218.809L213.641 63.8203L219.617 72H216.98L212.129 65.2266L210.523 66.7383V72H208.297V53.7656ZM230.047 65.332C230.047 63.7148 229.781 62.4883 229.25 61.6523C228.727 60.8086 227.961 60.3867 226.953 60.3867C225.898 60.3867 225.094 60.8086 224.539 61.6523C223.984 62.4883 223.707 63.7148 223.707 65.332C223.707 66.9492 223.984 68.1836 224.539 69.0352C225.102 69.8789 225.914 70.3008 226.977 70.3008C227.969 70.3008 228.727 69.875 229.25 69.0234C229.781 68.1719 230.047 66.9414 230.047 65.332ZM232.203 71.1562C232.203 73.125 231.738 74.6172 230.809 75.6328C229.879 76.6484 228.512 77.1562 226.707 77.1562C226.113 77.1562 225.492 77.1016 224.844 76.9922C224.195 76.8828 223.547 76.7227 222.898 76.5117V74.3789C223.664 74.7383 224.359 75.0039 224.984 75.1758C225.609 75.3477 226.184 75.4336 226.707 75.4336C227.871 75.4336 228.719 75.1172 229.25 74.4844C229.781 73.8516 230.047 72.8477 230.047 71.4727V71.3789V69.9141C229.703 70.6484 229.234 71.1953 228.641 71.5547C228.047 71.9141 227.324 72.0938 226.473 72.0938C224.941 72.0938 223.719 71.4805 222.805 70.2539C221.891 69.0273 221.434 67.3867 221.434 65.332C221.434 63.2695 221.891 61.625 222.805 60.3984C223.719 59.1719 224.941 58.5586 226.473 58.5586C227.316 58.5586 228.031 58.7266 228.617 59.0625C229.203 59.3984 229.68 59.918 230.047 60.6211V58.9219H232.203V71.1562ZM247.988 61.582C247.527 61.2227 247.059 60.9609 246.582 60.7969C246.105 60.6328 245.582 60.5508 245.012 60.5508C243.668 60.5508 242.641 60.9727 241.93 61.8164C241.219 62.6602 240.863 63.8789 240.863 65.4727V72H238.695V58.875H240.863V61.4414C241.223 60.5117 241.773 59.8008 242.516 59.3086C243.266 58.8086 244.152 58.5586 245.176 58.5586C245.707 58.5586 246.203 58.625 246.664 58.7578C247.125 58.8906 247.566 59.0977 247.988 59.3789V61.582ZM256.133 60.3867C255.039 60.3867 254.211 60.8125 253.648 61.6641C253.086 62.5156 252.805 63.7773 252.805 65.4492C252.805 67.1133 253.086 68.375 253.648 69.2344C254.211 70.0859 255.039 70.5117 256.133 70.5117C257.234 70.5117 258.066 70.0859 258.629 69.2344C259.191 68.375 259.473 67.1133 259.473 65.4492C259.473 63.7773 259.191 62.5156 258.629 61.6641C258.066 60.8125 257.234 60.3867 256.133 60.3867ZM256.133 58.5586C257.953 58.5586 259.344 59.1484 260.305 60.3281C261.273 61.5078 261.758 63.2148 261.758 65.4492C261.758 67.6914 261.277 69.4023 260.316 70.582C259.355 71.7539 257.961 72.3398 256.133 72.3398C254.312 72.3398 252.922 71.7539 251.961 70.582C251 69.4023 250.52 67.6914 250.52 65.4492C250.52 63.2148 251 61.5078 251.961 60.3281C252.922 59.1484 254.312 58.5586 256.133 58.5586ZM265.66 67.0312V58.8984H267.816V67.0312C267.816 68.2109 268.023 69.0781 268.438 69.6328C268.859 70.1875 269.508 70.4648 270.383 70.4648C271.398 70.4648 272.176 70.1094 272.715 69.3984C273.254 68.6797 273.523 67.6523 273.523 66.3164V58.8984H275.691V72H273.523V70.0312C273.141 70.7891 272.617 71.3633 271.953 71.7539C271.297 72.1445 270.527 72.3398 269.645 72.3398C268.301 72.3398 267.301 71.9023 266.645 71.0273C265.988 70.1445 265.66 68.8125 265.66 67.0312ZM290.152 63.8672V72H287.984V63.8672C287.984 62.6875 287.777 61.8203 287.363 61.2656C286.949 60.7109 286.301 60.4336 285.418 60.4336C284.41 60.4336 283.633 60.793 283.086 61.5117C282.547 62.2227 282.277 63.2461 282.277 64.582V72H280.121V58.875H282.277V60.8438C282.66 60.0938 283.18 59.5273 283.836 59.1445C284.492 58.7539 285.27 58.5586 286.168 58.5586C287.504 58.5586 288.5 59 289.156 59.8828C289.82 60.7578 290.152 62.0859 290.152 63.8672ZM302.352 60.5508V53.7656H304.508V72H302.352V70.3477C301.992 70.9961 301.512 71.4922 300.91 71.8359C300.316 72.1719 299.629 72.3398 298.848 72.3398C297.262 72.3398 296.012 71.7266 295.098 70.5C294.191 69.2656 293.738 67.5664 293.738 65.4023C293.738 63.2695 294.195 61.5977 295.109 60.3867C296.023 59.168 297.27 58.5586 298.848 58.5586C299.637 58.5586 300.332 58.7305 300.934 59.0742C301.535 59.4102 302.008 59.9023 302.352 60.5508ZM296.012 65.4492C296.012 67.1211 296.277 68.3828 296.809 69.2344C297.34 70.0859 298.125 70.5117 299.164 70.5117C300.203 70.5117 300.992 70.082 301.531 69.2227C302.078 68.3633 302.352 67.1055 302.352 65.4492C302.352 63.7852 302.078 62.5273 301.531 61.6758C300.992 60.8164 300.203 60.3867 299.164 60.3867C298.125 60.3867 297.34 60.8125 296.809 61.6641C296.277 62.5156 296.012 63.7773 296.012 65.4492ZM311.785 58.8867H315.441V63.1172H311.785V58.8867ZM311.785 67.7344H315.441V72H311.785V67.7344ZM411.371 72.5977C412.465 72.5977 413.176 72.4297 413.504 72.0938C413.84 71.7578 414.008 71.0312 414.008 69.9141V67.4648C414.008 66.1289 414.289 65.207 414.852 64.6992C415.414 64.1836 416.453 63.8359 417.969 63.6562C416.406 63.4453 415.355 63.1055 414.816 62.6367C414.277 62.1602 414.008 61.2344 414.008 59.8594V56.7188C414.008 55.6094 413.84 54.8867 413.504 54.5508C413.176 54.207 412.465 54.0352 411.371 54.0352H410.551V52.3594H411.301C413.246 52.3594 414.547 52.6484 415.203 53.2266C415.867 53.7969 416.199 54.9453 416.199 56.6719V59.7188C416.199 60.7344 416.414 61.5039 416.844 62.0273C417.281 62.5508 418.051 62.8125 419.152 62.8125H420.582V64.4883H419.152C418.145 64.4883 417.398 64.7969 416.914 65.4141C416.438 66.0312 416.199 66.7656 416.199 67.6172V69.9609C416.199 71.6875 415.867 72.8398 415.203 73.418C414.547 73.9961 413.246 74.2852 411.301 74.2852H410.551V72.5977H411.371Z"
          fill="#A9B7C6"/>
    <path d="M58.8945 71.332C58.3164 71.668 57.7188 71.918 57.1016 72.082C56.4922 72.2539 55.8672 72.3398 55.2266 72.3398C53.1953 72.3398 51.6055 71.7305 50.457 70.5117C49.3164 69.293 48.7461 67.6055 48.7461 65.4492C48.7461 63.293 49.3164 61.6055 50.457 60.3867C51.6055 59.168 53.1953 58.5586 55.2266 58.5586C55.8594 58.5586 56.4766 58.6406 57.0781 58.8047C57.6797 58.9688 58.2852 59.2227 58.8945 59.5664V61.8281C58.3242 61.3203 57.75 60.9531 57.1719 60.7266C56.6016 60.5 55.9531 60.3867 55.2266 60.3867C53.875 60.3867 52.8359 60.8242 52.1094 61.6992C51.3828 62.5742 51.0195 63.8242 51.0195 65.4492C51.0195 67.0664 51.3828 68.3164 52.1094 69.1992C52.8438 70.0742 53.8828 70.5117 55.2266 70.5117C55.9766 70.5117 56.6484 70.3984 57.2422 70.1719C57.8359 69.9375 58.3867 69.5781 58.8945 69.0938V71.332ZM69.3477 67.2539C69.3477 68.2227 69.5234 68.9531 69.875 69.4453C70.2344 69.9375 70.7617 70.1836 71.457 70.1836H73.9766V72H71.2461C69.957 72 68.957 71.5898 68.2461 70.7695C67.543 69.9414 67.1914 68.7695 67.1914 67.2539V55.3828H63.7344V53.6953H69.3477V67.2539ZM83.6094 65.4023H82.8945C81.6367 65.4023 80.6875 65.625 80.0469 66.0703C79.4141 66.5078 79.0977 67.1641 79.0977 68.0391C79.0977 68.8281 79.3359 69.4414 79.8125 69.8789C80.2891 70.3164 80.9492 70.5352 81.793 70.5352C82.9805 70.5352 83.9141 70.125 84.5938 69.3047C85.2734 68.4766 85.6172 67.3359 85.625 65.8828V65.4023H83.6094ZM87.793 64.5117V72H85.625V70.0547C85.1641 70.8359 84.582 71.4141 83.8789 71.7891C83.1836 72.1562 82.3359 72.3398 81.3359 72.3398C80 72.3398 78.9336 71.9648 78.1367 71.2148C77.3398 70.457 76.9414 69.4453 76.9414 68.1797C76.9414 66.7188 77.4297 65.6094 78.4062 64.8516C79.3906 64.0938 80.832 63.7148 82.7305 63.7148H85.625V63.375C85.6172 62.3281 85.3516 61.5703 84.8281 61.1016C84.3047 60.625 83.4688 60.3867 82.3203 60.3867C81.5859 60.3867 80.8438 60.4922 80.0938 60.7031C79.3438 60.9141 78.6133 61.2227 77.9023 61.6289V59.4727C78.6992 59.168 79.4609 58.9414 80.1875 58.793C80.9219 58.6367 81.6328 58.5586 82.3203 58.5586C83.4062 58.5586 84.332 58.7188 85.0977 59.0391C85.8711 59.3594 86.4961 59.8398 86.9727 60.4805C87.2695 60.8711 87.4805 61.3555 87.6055 61.9336C87.7305 62.5039 87.793 63.3633 87.793 64.5117ZM101.246 59.332V61.4414C100.629 61.082 100.008 60.8125 99.3828 60.6328C98.7578 60.4531 98.1211 60.3633 97.4727 60.3633C96.4961 60.3633 95.7656 60.5234 95.2812 60.8438C94.8047 61.1562 94.5664 61.6367 94.5664 62.2852C94.5664 62.8711 94.7461 63.3086 95.1055 63.5977C95.4648 63.8867 96.3594 64.168 97.7891 64.4414L98.6562 64.6055C99.7266 64.8086 100.535 65.2148 101.082 65.8242C101.637 66.4336 101.914 67.2266 101.914 68.2031C101.914 69.5 101.453 70.5156 100.531 71.25C99.6094 71.9766 98.3281 72.3398 96.6875 72.3398C96.0391 72.3398 95.3594 72.2695 94.6484 72.1289C93.9375 71.9961 93.168 71.793 92.3398 71.5195V69.293C93.1445 69.707 93.9141 70.0195 94.6484 70.2305C95.3828 70.4336 96.0781 70.5352 96.7344 70.5352C97.6875 70.5352 98.4258 70.3438 98.9492 69.9609C99.4727 69.5703 99.7344 69.0273 99.7344 68.332C99.7344 67.332 98.7773 66.6406 96.8633 66.2578L96.7695 66.2344L95.9609 66.0703C94.7188 65.8281 93.8125 65.4219 93.2422 64.8516C92.6719 64.2734 92.3867 63.4883 92.3867 62.4961C92.3867 61.2383 92.8125 60.2695 93.6641 59.5898C94.5156 58.9023 95.7305 58.5586 97.3086 58.5586C98.0117 58.5586 98.6875 58.625 99.3359 58.7578C99.9844 58.8828 100.621 59.0742 101.246 59.332ZM115.707 59.332V61.4414C115.09 61.082 114.469 60.8125 113.844 60.6328C113.219 60.4531 112.582 60.3633 111.934 60.3633C110.957 60.3633 110.227 60.5234 109.742 60.8438C109.266 61.1562 109.027 61.6367 109.027 62.2852C109.027 62.8711 109.207 63.3086 109.566 63.5977C109.926 63.8867 110.82 64.168 112.25 64.4414L113.117 64.6055C114.188 64.8086 114.996 65.2148 115.543 65.8242C116.098 66.4336 116.375 67.2266 116.375 68.2031C116.375 69.5 115.914 70.5156 114.992 71.25C114.07 71.9766 112.789 72.3398 111.148 72.3398C110.5 72.3398 109.82 72.2695 109.109 72.1289C108.398 71.9961 107.629 71.793 106.801 71.5195V69.293C107.605 69.707 108.375 70.0195 109.109 70.2305C109.844 70.4336 110.539 70.5352 111.195 70.5352C112.148 70.5352 112.887 70.3438 113.41 69.9609C113.934 69.5703 114.195 69.0273 114.195 68.332C114.195 67.332 113.238 66.6406 111.324 66.2578L111.23 66.2344L110.422 66.0703C109.18 65.8281 108.273 65.4219 107.703 64.8516C107.133 64.2734 106.848 63.4883 106.848 62.4961C106.848 61.2383 107.273 60.2695 108.125 59.5898C108.977 58.9023 110.191 58.5586 111.77 58.5586C112.473 58.5586 113.148 58.625 113.797 58.7578C114.445 58.8828 115.082 59.0742 115.707 59.332Z"
          fill="#E6AE48"/>
    <path d="M349.215 61.582C348.754 61.2227 348.285 60.9609 347.809 60.7969C347.332 60.6328 346.809 60.5508 346.238 60.5508C344.895 60.5508 343.867 60.9727 343.156 61.8164C342.445 62.6602 342.09 63.8789 342.09 65.4727V72H339.922V58.875H342.09V61.4414C342.449 60.5117 343 59.8008 343.742 59.3086C344.492 58.8086 345.379 58.5586 346.402 58.5586C346.934 58.5586 347.43 58.625 347.891 58.7578C348.352 58.8906 348.793 59.0977 349.215 59.3789V61.582ZM363.266 64.3594V65.4141H353.926V65.4844C353.863 67.2734 354.203 68.5586 354.945 69.3398C355.695 70.1211 356.75 70.5117 358.109 70.5117C358.797 70.5117 359.516 70.4023 360.266 70.1836C361.016 69.9648 361.816 69.6328 362.668 69.1875V71.332C361.848 71.668 361.055 71.918 360.289 72.082C359.531 72.2539 358.797 72.3398 358.086 72.3398C356.047 72.3398 354.453 71.7305 353.305 70.5117C352.156 69.2852 351.582 67.5977 351.582 65.4492C351.582 63.3555 352.145 61.6836 353.27 60.4336C354.395 59.1836 355.895 58.5586 357.77 58.5586C359.441 58.5586 360.758 59.125 361.719 60.2578C362.688 61.3906 363.203 62.7578 363.266 64.3594ZM361.109 63.7266C361.016 62.8203 360.684 62.0391 360.113 61.3828C359.551 60.7188 358.738 60.3867 357.676 60.3867C356.637 60.3867 355.781 60.7305 355.109 61.418C354.438 62.1055 354.07 62.8789 354.008 63.7383L361.109 63.7266ZM374.656 60.5508V53.7656H376.812V72H374.656V70.3477C374.297 70.9961 373.816 71.4922 373.215 71.8359C372.621 72.1719 371.934 72.3398 371.152 72.3398C369.566 72.3398 368.316 71.7266 367.402 70.5C366.496 69.2656 366.043 67.5664 366.043 65.4023C366.043 63.2695 366.5 61.5977 367.414 60.3867C368.328 59.168 369.574 58.5586 371.152 58.5586C371.941 58.5586 372.637 58.7305 373.238 59.0742C373.84 59.4102 374.312 59.9023 374.656 60.5508ZM368.316 65.4492C368.316 67.1211 368.582 68.3828 369.113 69.2344C369.645 70.0859 370.43 70.5117 371.469 70.5117C372.508 70.5117 373.297 70.082 373.836 69.2227C374.383 68.3633 374.656 67.1055 374.656 65.4492C374.656 63.7852 374.383 62.5273 373.836 61.6758C373.297 60.8164 372.508 60.3867 371.469 60.3867C370.43 60.3867 369.645 60.8125 369.113 61.6641C368.582 62.5156 368.316 63.7773 368.316 65.4492Z"
          fill="#8DB740"/>
    <path d="M384.242 67.7695H387.898V70.875L385.59 75.3516H383.082L384.242 70.875V67.7695ZM384.09 58.8867H387.746V63.1172H384.09V58.8867Z"
          fill="#CC7832"/>
    <path d="M124.5 50C124.5 50.2761 124.724 50.5 125 50.5C125.276 50.5 125.5 50.2761 125.5 50H124.5ZM43.5 50C43.5 50.2761 43.7239 50.5 44 50.5C44.2761 50.5 44.5 50.2761 44.5 50H43.5ZM84.5 32L84.9936 31.92C84.9543 31.6779 84.7453 31.5 84.5 31.5C84.2547 31.5 84.0457 31.6779 84.0064 31.92L84.5 32ZM85.0433 35.3534L85.5368 35.2735L85.5368 35.2735L85.0433 35.3534ZM89.9153 39.5535L89.9089 40.0534L89.9089 40.0534L89.9153 39.5535ZM120.064 39.9372L120.057 40.4371L120.057 40.4371L120.064 39.9372ZM48.9364 39.9372L48.9427 40.4371L48.9427 40.4371L48.9364 39.9372ZM79.0847 39.5535L79.0911 40.0534L79.0911 40.0534L79.0847 39.5535ZM83.9567 35.3534L83.4632 35.2735L83.4632 35.2735L83.9567 35.3534ZM124.5 44.9368V50H125.5V44.9368H124.5ZM44.5 50V44.9368H43.5V50H44.5ZM84.0064 32.08L84.5497 35.4334L85.5368 35.2735L84.9936 31.92L84.0064 32.08ZM89.9089 40.0534L120.057 40.4371L120.07 39.4372L89.9216 39.0535L89.9089 40.0534ZM48.9427 40.4371L79.0911 40.0534L79.0784 39.0535L48.93 39.4372L48.9427 40.4371ZM84.4503 35.4334L84.9936 32.08L84.0064 31.92L83.4632 35.2735L84.4503 35.4334ZM79.0911 40.0534C81.7625 40.0194 84.0231 38.0706 84.4503 35.4334L83.4632 35.2735C83.1136 37.4312 81.264 39.0257 79.0784 39.0535L79.0911 40.0534ZM125.5 44.9368C125.5 41.9265 123.08 39.4755 120.07 39.4372L120.057 40.4371C122.52 40.4685 124.5 42.4738 124.5 44.9368H125.5ZM84.5497 35.4334C84.9769 38.0706 87.2375 40.0194 89.9089 40.0534L89.9216 39.0535C87.736 39.0257 85.8864 37.4312 85.5368 35.2735L84.5497 35.4334ZM44.5 44.9368C44.5 42.4738 46.48 40.4685 48.9427 40.4371L48.93 39.4372C45.92 39.4755 43.5 41.9265 43.5 44.9368H44.5Z"
          fill="#A9B7C6"/>
    <path d="M309.5 50C309.5 50.2761 309.724 50.5 310 50.5C310.276 50.5 310.5 50.2761 310.5 50H309.5ZM160.5 50C160.5 50.2761 160.724 50.5 161 50.5C161.276 50.5 161.5 50.2761 161.5 50H160.5ZM235.5 32L235.979 31.8572C235.916 31.6453 235.721 31.5 235.5 31.5C235.279 31.5 235.084 31.6453 235.021 31.8572L235.5 32ZM236.678 35.9537L237.157 35.8109L237.157 35.8109L236.678 35.9537ZM241.435 39.5256L241.432 40.0256L241.432 40.0256L241.435 39.5256ZM305.035 39.9656L305.038 39.4657L305.035 39.9656ZM165.965 39.9656L165.962 39.4657L165.962 39.4657L165.965 39.9656ZM229.565 39.5256L229.568 40.0256L229.565 39.5256ZM234.322 35.9537L233.843 35.8109L233.843 35.8109L234.322 35.9537ZM309.5 44.9655V50H310.5V44.9655H309.5ZM161.5 50V44.9655H160.5V50H161.5ZM235.021 32.1428L236.199 36.0965L237.157 35.8109L235.979 31.8572L235.021 32.1428ZM241.432 40.0256L305.031 40.4656L305.038 39.4657L241.439 39.0256L241.432 40.0256ZM165.969 40.4656L229.568 40.0256L229.561 39.0256L165.962 39.4657L165.969 40.4656ZM234.801 36.0965L235.979 32.1428L235.021 31.8572L233.843 35.8109L234.801 36.0965ZM229.568 40.0256C231.987 40.0089 234.11 38.4142 234.801 36.0965L233.843 35.8109C233.278 37.7072 231.54 39.0119 229.561 39.0256L229.568 40.0256ZM310.5 44.9655C310.5 41.9428 308.061 39.4866 305.038 39.4657L305.031 40.4656C307.504 40.4827 309.5 42.4924 309.5 44.9655H310.5ZM236.199 36.0965C236.89 38.4142 239.013 40.0089 241.432 40.0256L241.439 39.0256C239.46 39.0119 237.722 37.7072 237.157 35.8109L236.199 36.0965ZM161.5 44.9655C161.5 42.4924 163.496 40.4827 165.969 40.4656L165.962 39.4657C162.939 39.4866 160.5 41.9428 160.5 44.9655H161.5Z"
          fill="#A9B7C6"/>
    <path d="M381.5 50C381.5 50.2761 381.724 50.5 382 50.5C382.276 50.5 382.5 50.2761 382.5 50H381.5ZM334.5 50C334.5 50.2761 334.724 50.5 335 50.5C335.276 50.5 335.5 50.2761 335.5 50H334.5ZM358.5 32L358.998 31.9532C358.974 31.6963 358.758 31.5 358.5 31.5C358.242 31.5 358.026 31.6963 358.002 31.9532L358.5 32ZM358.788 35.0668L359.286 35.02L359.286 35.02L358.788 35.0668ZM363.657 39.5976L363.646 40.0975L363.646 40.0975L363.657 39.5976ZM377.11 39.8927L377.121 39.3929L377.121 39.3929L377.11 39.8927ZM339.89 39.8927L339.879 39.3929L339.879 39.3929L339.89 39.8927ZM353.343 39.5976L353.354 40.0975L353.354 40.0975L353.343 39.5976ZM358.212 35.0668L357.714 35.02L357.714 35.02L358.212 35.0668ZM381.5 44.8915V50H382.5V44.8915H381.5ZM335.5 50V44.8915H334.5V50H335.5ZM358.002 32.0468L358.29 35.1136L359.286 35.02L358.998 31.9532L358.002 32.0468ZM363.646 40.0975L377.099 40.3926L377.121 39.3929L363.668 39.0978L363.646 40.0975ZM339.901 40.3926L353.354 40.0975L353.332 39.0978L339.879 39.3929L339.901 40.3926ZM358.71 35.1136L358.998 32.0468L358.002 31.9532L357.714 35.02L358.71 35.1136ZM353.354 40.0975C356.146 40.0363 358.448 37.8934 358.71 35.1136L357.714 35.02C357.5 37.2943 355.616 39.0477 353.332 39.0978L353.354 40.0975ZM382.5 44.8915C382.5 41.901 380.11 39.4584 377.121 39.3929L377.099 40.3926C379.545 40.4463 381.5 42.4447 381.5 44.8915H382.5ZM358.29 35.1136C358.552 37.8934 360.854 40.0363 363.646 40.0975L363.668 39.0978C361.384 39.0477 359.5 37.2944 359.286 35.02L358.29 35.1136ZM335.5 44.8915C335.5 42.4447 337.455 40.4463 339.901 40.3926L339.879 39.3929C336.89 39.4584 334.5 41.901 334.5 44.8915H335.5Z"
          fill="#A9B7C6"/>
    <path d="M60.7012 22.666V23.7207C60.3926 23.541 60.082 23.4062 59.7695 23.3164C59.457 23.2266 59.1387 23.1816 58.8145 23.1816C58.3262 23.1816 57.9609 23.2617 57.7188 23.4219C57.4805 23.5781 57.3613 23.8184 57.3613 24.1426C57.3613 24.4355 57.4512 24.6543 57.6309 24.7988C57.8105 24.9434 58.2578 25.084 58.9727 25.2207L59.4062 25.3027C59.9414 25.4043 60.3457 25.6074 60.6191 25.9121C60.8965 26.2168 61.0352 26.6133 61.0352 27.1016C61.0352 27.75 60.8047 28.2578 60.3438 28.625C59.8828 28.9883 59.2422 29.1699 58.4219 29.1699C58.0977 29.1699 57.7578 29.1348 57.4023 29.0645C57.0469 28.998 56.6621 28.8965 56.248 28.7598V27.6465C56.6504 27.8535 57.0352 28.0098 57.4023 28.1152C57.7695 28.2168 58.1172 28.2676 58.4453 28.2676C58.9219 28.2676 59.291 28.1719 59.5527 27.9805C59.8145 27.7852 59.9453 27.5137 59.9453 27.166C59.9453 26.666 59.4668 26.3203 58.5098 26.1289L58.4629 26.1172L58.0586 26.0352C57.4375 25.9141 56.9844 25.7109 56.6992 25.4258C56.4141 25.1367 56.2715 24.7441 56.2715 24.248C56.2715 23.6191 56.4844 23.1348 56.9102 22.7949C57.3359 22.4512 57.9434 22.2793 58.7324 22.2793C59.084 22.2793 59.4219 22.3125 59.7461 22.3789C60.0703 22.4414 60.3887 22.5371 60.7012 22.666ZM68.793 25.1797V25.707H64.123V25.7422C64.0918 26.6367 64.2617 27.2793 64.6328 27.6699C65.0078 28.0605 65.5352 28.2559 66.2148 28.2559C66.5586 28.2559 66.918 28.2012 67.293 28.0918C67.668 27.9824 68.0684 27.8164 68.4941 27.5938V28.666C68.084 28.834 67.6875 28.959 67.3047 29.041C66.9258 29.127 66.5586 29.1699 66.2031 29.1699C65.1836 29.1699 64.3867 28.8652 63.8125 28.2559C63.2383 27.6426 62.9512 26.7988 62.9512 25.7246C62.9512 24.6777 63.2324 23.8418 63.7949 23.2168C64.3574 22.5918 65.1074 22.2793 66.0449 22.2793C66.8809 22.2793 67.5391 22.5625 68.0195 23.1289C68.5039 23.6953 68.7617 24.3789 68.793 25.1797ZM67.7148 24.8633C67.668 24.4102 67.502 24.0195 67.2168 23.6914C66.9355 23.3594 66.5293 23.1934 65.998 23.1934C65.4785 23.1934 65.0508 23.3652 64.7148 23.709C64.3789 24.0527 64.1953 24.4395 64.1641 24.8691L67.7148 24.8633ZM73.6738 26.627C73.6738 27.1113 73.7617 27.4766 73.9375 27.7227C74.1172 27.9688 74.3809 28.0918 74.7285 28.0918H75.9883V29H74.623C73.9785 29 73.4785 28.7949 73.123 28.3848C72.7715 27.9707 72.5957 27.3848 72.5957 26.627V20.6914H70.8672V19.8477H73.6738V26.627ZM83.2539 25.1797V25.707H78.584V25.7422C78.5527 26.6367 78.7227 27.2793 79.0938 27.6699C79.4688 28.0605 79.9961 28.2559 80.6758 28.2559C81.0195 28.2559 81.3789 28.2012 81.7539 28.0918C82.1289 27.9824 82.5293 27.8164 82.9551 27.5938V28.666C82.5449 28.834 82.1484 28.959 81.7656 29.041C81.3867 29.127 81.0195 29.1699 80.6641 29.1699C79.6445 29.1699 78.8477 28.8652 78.2734 28.2559C77.6992 27.6426 77.4121 26.7988 77.4121 25.7246C77.4121 24.6777 77.6934 23.8418 78.2559 23.2168C78.8184 22.5918 79.5684 22.2793 80.5059 22.2793C81.3418 22.2793 82 22.5625 82.4805 23.1289C82.9648 23.6953 83.2227 24.3789 83.2539 25.1797ZM82.1758 24.8633C82.1289 24.4102 81.9629 24.0195 81.6777 23.6914C81.3965 23.3594 80.9902 23.1934 80.459 23.1934C79.9395 23.1934 79.5117 23.3652 79.1758 23.709C78.8398 24.0527 78.6562 24.4395 78.625 24.8691L82.1758 24.8633ZM90.1387 28.666C89.8496 28.834 89.5508 28.959 89.2422 29.041C88.9375 29.127 88.625 29.1699 88.3047 29.1699C87.2891 29.1699 86.4941 28.8652 85.9199 28.2559C85.3496 27.6465 85.0645 26.8027 85.0645 25.7246C85.0645 24.6465 85.3496 23.8027 85.9199 23.1934C86.4941 22.584 87.2891 22.2793 88.3047 22.2793C88.6211 22.2793 88.9297 22.3203 89.2305 22.4023C89.5312 22.4844 89.834 22.6113 90.1387 22.7832V23.9141C89.8535 23.6602 89.5664 23.4766 89.2773 23.3633C88.9922 23.25 88.668 23.1934 88.3047 23.1934C87.6289 23.1934 87.1094 23.4121 86.7461 23.8496C86.3828 24.2871 86.2012 24.9121 86.2012 25.7246C86.2012 26.5332 86.3828 27.1582 86.7461 27.5996C87.1133 28.0371 87.6328 28.2559 88.3047 28.2559C88.6797 28.2559 89.0156 28.1992 89.3125 28.0859C89.6094 27.9688 89.8848 27.7891 90.1387 27.5469V28.666ZM94.75 20.5742V22.4375H97.1992V23.2754H94.75V26.8379C94.75 27.3223 94.8418 27.6602 95.0254 27.8516C95.209 28.043 95.5293 28.1387 95.9863 28.1387H97.1992V29H95.8809C95.0723 29 94.502 28.8379 94.1699 28.5137C93.8379 28.1895 93.6719 27.6309 93.6719 26.8379V23.2754H91.9199V22.4375H93.6719V20.5742H94.75ZM101.992 23.1934C101.445 23.1934 101.031 23.4062 100.75 23.832C100.469 24.2578 100.328 24.8887 100.328 25.7246C100.328 26.5566 100.469 27.1875 100.75 27.6172C101.031 28.043 101.445 28.2559 101.992 28.2559C102.543 28.2559 102.959 28.043 103.24 27.6172C103.521 27.1875 103.662 26.5566 103.662 25.7246C103.662 24.8887 103.521 24.2578 103.24 23.832C102.959 23.4062 102.543 23.1934 101.992 23.1934ZM101.992 22.2793C102.902 22.2793 103.598 22.5742 104.078 23.1641C104.562 23.7539 104.805 24.6074 104.805 25.7246C104.805 26.8457 104.564 27.7012 104.084 28.291C103.604 28.877 102.906 29.1699 101.992 29.1699C101.082 29.1699 100.387 28.877 99.9062 28.291C99.4258 27.7012 99.1855 26.8457 99.1855 25.7246C99.1855 24.6074 99.4258 23.7539 99.9062 23.1641C100.387 22.5742 101.082 22.2793 101.992 22.2793ZM112.381 23.791C112.15 23.6113 111.916 23.4805 111.678 23.3984C111.439 23.3164 111.178 23.2754 110.893 23.2754C110.221 23.2754 109.707 23.4863 109.352 23.9082C108.996 24.3301 108.818 24.9395 108.818 25.7363V29H107.734V22.4375H108.818V23.7207C108.998 23.2559 109.273 22.9004 109.645 22.6543C110.02 22.4043 110.463 22.2793 110.975 22.2793C111.24 22.2793 111.488 22.3125 111.719 22.3789C111.949 22.4453 112.17 22.5488 112.381 22.6895V23.791Z"
          fill="#A9B7C6"/>
    <path d="M208.197 28.1738V31.4961H207.113V22.4375H208.197V23.2754C208.377 22.9512 208.615 22.7051 208.912 22.5371C209.213 22.3652 209.559 22.2793 209.949 22.2793C210.742 22.2793 211.363 22.5859 211.812 23.1992C212.266 23.8125 212.492 24.6621 212.492 25.748C212.492 26.8145 212.266 27.6523 211.812 28.2617C211.359 28.8672 210.738 29.1699 209.949 29.1699C209.551 29.1699 209.201 29.0859 208.9 28.918C208.604 28.7461 208.369 28.498 208.197 28.1738ZM211.361 25.7246C211.361 24.8887 211.229 24.2578 210.963 23.832C210.701 23.4062 210.311 23.1934 209.791 23.1934C209.268 23.1934 208.871 23.4082 208.602 23.8379C208.332 24.2637 208.197 24.8926 208.197 25.7246C208.197 26.5527 208.332 27.1816 208.602 27.6113C208.871 28.041 209.268 28.2559 209.791 28.2559C210.311 28.2559 210.701 28.043 210.963 27.6172C211.229 27.1914 211.361 26.5605 211.361 25.7246ZM219.998 23.791C219.768 23.6113 219.533 23.4805 219.295 23.3984C219.057 23.3164 218.795 23.2754 218.51 23.2754C217.838 23.2754 217.324 23.4863 216.969 23.9082C216.613 24.3301 216.436 24.9395 216.436 25.7363V29H215.352V22.4375H216.436V23.7207C216.615 23.2559 216.891 22.9004 217.262 22.6543C217.637 22.4043 218.08 22.2793 218.592 22.2793C218.857 22.2793 219.105 22.3125 219.336 22.3789C219.566 22.4453 219.787 22.5488 219.998 22.6895V23.791ZM224.07 23.1934C223.523 23.1934 223.109 23.4062 222.828 23.832C222.547 24.2578 222.406 24.8887 222.406 25.7246C222.406 26.5566 222.547 27.1875 222.828 27.6172C223.109 28.043 223.523 28.2559 224.07 28.2559C224.621 28.2559 225.037 28.043 225.318 27.6172C225.6 27.1875 225.74 26.5566 225.74 25.7246C225.74 24.8887 225.6 24.2578 225.318 23.832C225.037 23.4062 224.621 23.1934 224.07 23.1934ZM224.07 22.2793C224.98 22.2793 225.676 22.5742 226.156 23.1641C226.641 23.7539 226.883 24.6074 226.883 25.7246C226.883 26.8457 226.643 27.7012 226.162 28.291C225.682 28.877 224.984 29.1699 224.07 29.1699C223.16 29.1699 222.465 28.877 221.984 28.291C221.504 27.7012 221.264 26.8457 221.264 25.7246C221.264 24.6074 221.504 23.7539 221.984 23.1641C222.465 22.5742 223.16 22.2793 224.07 22.2793ZM229.889 28.1738V31.4961H228.805V22.4375H229.889V23.2754C230.068 22.9512 230.307 22.7051 230.604 22.5371C230.904 22.3652 231.25 22.2793 231.641 22.2793C232.434 22.2793 233.055 22.5859 233.504 23.1992C233.957 23.8125 234.184 24.6621 234.184 25.748C234.184 26.8145 233.957 27.6523 233.504 28.2617C233.051 28.8672 232.43 29.1699 231.641 29.1699C231.242 29.1699 230.893 29.0859 230.592 28.918C230.295 28.7461 230.061 28.498 229.889 28.1738ZM233.053 25.7246C233.053 24.8887 232.92 24.2578 232.654 23.832C232.393 23.4062 232.002 23.1934 231.482 23.1934C230.959 23.1934 230.562 23.4082 230.293 23.8379C230.023 24.2637 229.889 24.8926 229.889 25.7246C229.889 26.5527 230.023 27.1816 230.293 27.6113C230.562 28.041 230.959 28.2559 231.482 28.2559C232.002 28.2559 232.393 28.043 232.654 27.6172C232.92 27.1914 233.053 26.5605 233.053 25.7246ZM241.484 25.1797V25.707H236.814V25.7422C236.783 26.6367 236.953 27.2793 237.324 27.6699C237.699 28.0605 238.227 28.2559 238.906 28.2559C239.25 28.2559 239.609 28.2012 239.984 28.0918C240.359 27.9824 240.76 27.8164 241.186 27.5938V28.666C240.775 28.834 240.379 28.959 239.996 29.041C239.617 29.127 239.25 29.1699 238.895 29.1699C237.875 29.1699 237.078 28.8652 236.504 28.2559C235.93 27.6426 235.643 26.7988 235.643 25.7246C235.643 24.6777 235.924 23.8418 236.486 23.2168C237.049 22.5918 237.799 22.2793 238.736 22.2793C239.572 22.2793 240.23 22.5625 240.711 23.1289C241.195 23.6953 241.453 24.3789 241.484 25.1797ZM240.406 24.8633C240.359 24.4102 240.193 24.0195 239.908 23.6914C239.627 23.3594 239.221 23.1934 238.689 23.1934C238.17 23.1934 237.742 23.3652 237.406 23.709C237.07 24.0527 236.887 24.4395 236.855 24.8691L240.406 24.8633ZM248.92 23.791C248.689 23.6113 248.455 23.4805 248.217 23.3984C247.979 23.3164 247.717 23.2754 247.432 23.2754C246.76 23.2754 246.246 23.4863 245.891 23.9082C245.535 24.3301 245.357 24.9395 245.357 25.7363V29H244.273V22.4375H245.357V23.7207C245.537 23.2559 245.812 22.9004 246.184 22.6543C246.559 22.4043 247.002 22.2793 247.514 22.2793C247.779 22.2793 248.027 22.3125 248.258 22.3789C248.488 22.4453 248.709 22.5488 248.92 22.6895V23.791ZM252.98 20.5742V22.4375H255.43V23.2754H252.98V26.8379C252.98 27.3223 253.072 27.6602 253.256 27.8516C253.439 28.043 253.76 28.1387 254.217 28.1387H255.43V29H254.111C253.303 29 252.732 28.8379 252.4 28.5137C252.068 28.1895 251.902 27.6309 251.902 26.8379V23.2754H250.15V22.4375H251.902V20.5742H252.98ZM261.641 26.8906C261.461 27.3477 261.232 27.9492 260.955 28.6953C260.568 29.7266 260.309 30.3555 260.176 30.582C259.996 30.8867 259.771 31.1152 259.502 31.2676C259.232 31.4199 258.918 31.4961 258.559 31.4961H257.691V30.5938H258.33C258.646 30.5938 258.895 30.502 259.074 30.3184C259.254 30.1348 259.482 29.6602 259.76 28.8945L257.223 22.4375H258.365L260.311 27.5703L262.227 22.4375H263.369L261.641 26.8906Z"
          fill="#A9B7C6"/>
    <path d="M340.586 22.4375H341.705L343.609 27.9453L345.52 22.4375H346.639L344.307 29H342.918L340.586 22.4375ZM351.344 25.7012H350.986C350.357 25.7012 349.883 25.8125 349.562 26.0352C349.246 26.2539 349.088 26.582 349.088 27.0195C349.088 27.4141 349.207 27.7207 349.445 27.9395C349.684 28.1582 350.014 28.2676 350.436 28.2676C351.029 28.2676 351.496 28.0625 351.836 27.6523C352.176 27.2383 352.348 26.668 352.352 25.9414V25.7012H351.344ZM353.436 25.2559V29H352.352V28.0273C352.121 28.418 351.83 28.707 351.479 28.8945C351.131 29.0781 350.707 29.1699 350.207 29.1699C349.539 29.1699 349.006 28.9824 348.607 28.6074C348.209 28.2285 348.01 27.7227 348.01 27.0898C348.01 26.3594 348.254 25.8047 348.742 25.4258C349.234 25.0469 349.955 24.8574 350.904 24.8574H352.352V24.6875C352.348 24.1641 352.215 23.7852 351.953 23.5508C351.691 23.3125 351.273 23.1934 350.699 23.1934C350.332 23.1934 349.961 23.2461 349.586 23.3516C349.211 23.457 348.846 23.6113 348.49 23.8145V22.7363C348.889 22.584 349.27 22.4707 349.633 22.3965C350 22.3184 350.355 22.2793 350.699 22.2793C351.242 22.2793 351.705 22.3594 352.088 22.5195C352.475 22.6797 352.787 22.9199 353.025 23.2402C353.174 23.4355 353.279 23.6777 353.342 23.9668C353.404 24.252 353.436 24.6816 353.436 25.2559ZM358.674 26.627C358.674 27.1113 358.762 27.4766 358.938 27.7227C359.117 27.9688 359.381 28.0918 359.729 28.0918H360.988V29H359.623C358.979 29 358.479 28.7949 358.123 28.3848C357.771 27.9707 357.596 27.3848 357.596 26.627V20.6914H355.867V19.8477H358.674V26.627ZM362.834 26.5156V22.4492H363.912V26.5156C363.912 27.1055 364.016 27.5391 364.223 27.8164C364.434 28.0938 364.758 28.2324 365.195 28.2324C365.703 28.2324 366.092 28.0547 366.361 27.6992C366.631 27.3398 366.766 26.8262 366.766 26.1582V22.4492H367.85V29H366.766V28.0156C366.574 28.3945 366.312 28.6816 365.98 28.877C365.652 29.0723 365.268 29.1699 364.826 29.1699C364.154 29.1699 363.654 28.9512 363.326 28.5137C362.998 28.0723 362.834 27.4062 362.834 26.5156ZM375.484 25.1797V25.707H370.814V25.7422C370.783 26.6367 370.953 27.2793 371.324 27.6699C371.699 28.0605 372.227 28.2559 372.906 28.2559C373.25 28.2559 373.609 28.2012 373.984 28.0918C374.359 27.9824 374.76 27.8164 375.186 27.5938V28.666C374.775 28.834 374.379 28.959 373.996 29.041C373.617 29.127 373.25 29.1699 372.895 29.1699C371.875 29.1699 371.078 28.8652 370.504 28.2559C369.93 27.6426 369.643 26.7988 369.643 25.7246C369.643 24.6777 369.924 23.8418 370.486 23.2168C371.049 22.5918 371.799 22.2793 372.736 22.2793C373.572 22.2793 374.23 22.5625 374.711 23.1289C375.195 23.6953 375.453 24.3789 375.484 25.1797ZM374.406 24.8633C374.359 24.4102 374.193 24.0195 373.908 23.6914C373.627 23.3594 373.221 23.1934 372.689 23.1934C372.17 23.1934 371.742 23.3652 371.406 23.709C371.07 24.0527 370.887 24.4395 370.855 24.8691L374.406 24.8633Z"
          fill="#A9B7C6"/>
</svg>
