<svg width="454" height="167" viewBox="0 0 454 167" fill="none" xmlns="http://www.w3.org/2000/svg">
    <rect width="454" height="167" fill="#2B2B2B"/>
    <path d="M19.5586 30.2656H23.6836V35H19.5586V30.2656ZM128.32 35.5977V37.2852H127.57C125.625 37.2852 124.32 36.9961 123.656 36.418C123 35.8398 122.672 34.6875 122.672 32.9609V30.6172C122.672 29.7656 122.43 29.0312 121.945 28.4141C121.469 27.7969 120.727 27.4883 119.719 27.4883H118.289V25.8125H119.719C120.82 25.8125 121.586 25.5508 122.016 25.0273C122.453 24.5039 122.672 23.7344 122.672 22.7188V19.6719C122.672 17.9453 123 16.7969 123.656 16.2266C124.32 15.6484 125.625 15.3594 127.57 15.3594H128.32V17.0352H127.5C126.406 17.0352 125.691 17.207 125.355 17.5508C125.027 17.8867 124.863 18.6094 124.863 19.7188V22.8594C124.863 24.2344 124.594 25.1602 124.055 25.6367C123.516 26.1055 122.465 26.4453 120.902 26.6562C122.418 26.8359 123.457 27.1836 124.02 27.6992C124.582 28.207 124.863 29.1289 124.863 30.4648V32.9141C124.863 34.0312 125.027 34.7578 125.355 35.0938C125.691 35.4297 126.406 35.5977 127.5 35.5977H128.32ZM85.1602 54.8672V63H82.9922V54.8672C82.9922 53.6875 82.7852 52.8203 82.3711 52.2656C81.957 51.7109 81.3086 51.4336 80.4258 51.4336C79.418 51.4336 78.6406 51.793 78.0938 52.5117C77.5547 53.2227 77.2852 54.2461 77.2852 55.582V63H75.1289V44.7656H77.2852V51.8438C77.668 51.0938 78.1875 50.5273 78.8438 50.1445C79.5 49.7539 80.2773 49.5586 81.1758 49.5586C82.5117 49.5586 83.5078 50 84.1641 50.8828C84.8281 51.7578 85.1602 53.0859 85.1602 54.8672ZM100.43 55.3594V56.4141H91.0898V56.4844C91.0273 58.2734 91.3672 59.5586 92.1094 60.3398C92.8594 61.1211 93.9141 61.5117 95.2734 61.5117C95.9609 61.5117 96.6797 61.4023 97.4297 61.1836C98.1797 60.9648 98.9805 60.6328 99.832 60.1875V62.332C99.0117 62.668 98.2188 62.918 97.4531 63.082C96.6953 63.2539 95.9609 63.3398 95.25 63.3398C93.2109 63.3398 91.6172 62.7305 90.4688 61.5117C89.3203 60.2852 88.7461 58.5977 88.7461 56.4492C88.7461 54.3555 89.3086 52.6836 90.4336 51.4336C91.5586 50.1836 93.0586 49.5586 94.9336 49.5586C96.6055 49.5586 97.9219 50.125 98.8828 51.2578C99.8516 52.3906 100.367 53.7578 100.43 55.3594ZM98.2734 54.7266C98.1797 53.8203 97.8477 53.0391 97.2773 52.3828C96.7148 51.7188 95.9023 51.3867 94.8398 51.3867C93.8008 51.3867 92.9453 51.7305 92.2734 52.418C91.6016 53.1055 91.2344 53.8789 91.1719 54.7383L98.2734 54.7266ZM105.469 49.9219H110.988V61.3242H115.266V63H104.555V61.3242H108.832V51.5977H105.469V49.9219ZM108.832 44.8242H110.988V47.543H108.832V44.8242ZM126.281 56.332C126.281 54.7148 126.016 53.4883 125.484 52.6523C124.961 51.8086 124.195 51.3867 123.188 51.3867C122.133 51.3867 121.328 51.8086 120.773 52.6523C120.219 53.4883 119.941 54.7148 119.941 56.332C119.941 57.9492 120.219 59.1836 120.773 60.0352C121.336 60.8789 122.148 61.3008 123.211 61.3008C124.203 61.3008 124.961 60.875 125.484 60.0234C126.016 59.1719 126.281 57.9414 126.281 56.332ZM128.438 62.1562C128.438 64.125 127.973 65.6172 127.043 66.6328C126.113 67.6484 124.746 68.1562 122.941 68.1562C122.348 68.1562 121.727 68.1016 121.078 67.9922C120.43 67.8828 119.781 67.7227 119.133 67.5117V65.3789C119.898 65.7383 120.594 66.0039 121.219 66.1758C121.844 66.3477 122.418 66.4336 122.941 66.4336C124.105 66.4336 124.953 66.1172 125.484 65.4844C126.016 64.8516 126.281 63.8477 126.281 62.4727V62.3789V60.9141C125.938 61.6484 125.469 62.1953 124.875 62.5547C124.281 62.9141 123.559 63.0938 122.707 63.0938C121.176 63.0938 119.953 62.4805 119.039 61.2539C118.125 60.0273 117.668 58.3867 117.668 56.332C117.668 54.2695 118.125 52.625 119.039 51.3984C119.953 50.1719 121.176 49.5586 122.707 49.5586C123.551 49.5586 124.266 49.7266 124.852 50.0625C125.438 50.3984 125.914 50.918 126.281 51.6211V49.9219H128.438V62.1562ZM137.883 46.1484V49.875H142.781V51.5508H137.883V58.6758C137.883 59.6445 138.066 60.3203 138.434 60.7031C138.801 61.0859 139.441 61.2773 140.355 61.2773H142.781V63H140.145C138.527 63 137.387 62.6758 136.723 62.0273C136.059 61.3789 135.727 60.2617 135.727 58.6758V51.5508H132.223V49.875H135.727V46.1484H137.883ZM157.465 54.8672V63H155.297V54.8672C155.297 53.6875 155.09 52.8203 154.676 52.2656C154.262 51.7109 153.613 51.4336 152.73 51.4336C151.723 51.4336 150.945 51.793 150.398 52.5117C149.859 53.2227 149.59 54.2461 149.59 55.582V63H147.434V44.7656H149.59V51.8438C149.973 51.0938 150.492 50.5273 151.148 50.1445C151.805 49.7539 152.582 49.5586 153.48 49.5586C154.816 49.5586 155.812 50 156.469 50.8828C157.133 51.7578 157.465 53.0859 157.465 54.8672ZM164.637 49.8867H168.293V54.1172H164.637V49.8867ZM164.637 58.7344H168.293V63H164.637V58.7344ZM72.8438 77.875H74.9766L77.2617 88.4805L79.1367 81.707H80.9766L82.875 88.4805L85.1602 77.875H87.293L84.2227 91H82.1602L80.0625 83.8047L77.9766 91H75.9141L72.8438 77.875ZM91.0078 77.9219H96.5273V89.3242H100.805V91H90.0938V89.3242H94.3711V79.5977H91.0078V77.9219ZM94.3711 72.8242H96.5273V75.543H94.3711V72.8242ZM111.82 79.5508V72.7656H113.977V91H111.82V89.3477C111.461 89.9961 110.98 90.4922 110.379 90.8359C109.785 91.1719 109.098 91.3398 108.316 91.3398C106.73 91.3398 105.48 90.7266 104.566 89.5C103.66 88.2656 103.207 86.5664 103.207 84.4023C103.207 82.2695 103.664 80.5977 104.578 79.3867C105.492 78.168 106.738 77.5586 108.316 77.5586C109.105 77.5586 109.801 77.7305 110.402 78.0742C111.004 78.4102 111.477 78.9023 111.82 79.5508ZM105.48 84.4492C105.48 86.1211 105.746 87.3828 106.277 88.2344C106.809 89.0859 107.594 89.5117 108.633 89.5117C109.672 89.5117 110.461 89.082 111 88.2227C111.547 87.3633 111.82 86.1055 111.82 84.4492C111.82 82.7852 111.547 81.5273 111 80.6758C110.461 79.8164 109.672 79.3867 108.633 79.3867C107.594 79.3867 106.809 79.8125 106.277 80.6641C105.746 81.5156 105.48 82.7773 105.48 84.4492ZM128.543 82.8672V91H126.375V82.8672C126.375 81.6875 126.168 80.8203 125.754 80.2656C125.34 79.7109 124.691 79.4336 123.809 79.4336C122.801 79.4336 122.023 79.793 121.477 80.5117C120.938 81.2227 120.668 82.2461 120.668 83.582V91H118.512V72.7656H120.668V79.8438C121.051 79.0938 121.57 78.5273 122.227 78.1445C122.883 77.7539 123.66 77.5586 124.559 77.5586C125.895 77.5586 126.891 78 127.547 78.8828C128.211 79.7578 128.543 81.0859 128.543 82.8672ZM137.883 74.1484V77.875H142.781V79.5508H137.883V86.6758C137.883 87.6445 138.066 88.3203 138.434 88.7031C138.801 89.0859 139.441 89.2773 140.355 89.2773H142.781V91H140.145C138.527 91 137.387 90.6758 136.723 90.0273C136.059 89.3789 135.727 88.2617 135.727 86.6758V79.5508H132.223V77.875H135.727V74.1484H137.883ZM150.176 77.8867H153.832V82.1172H150.176V77.8867ZM150.176 86.7344H153.832V91H150.176V86.7344ZM80.7656 107.211C81.0312 106.648 81.3672 106.234 81.7734 105.969C82.1875 105.695 82.6836 105.559 83.2617 105.559C84.3164 105.559 85.0586 105.969 85.4883 106.789C85.9258 107.602 86.1445 109.137 86.1445 111.395V119H84.1758V111.488C84.1758 109.637 84.0703 108.488 83.8594 108.043C83.6562 107.59 83.2812 107.363 82.7344 107.363C82.1094 107.363 81.6797 107.605 81.4453 108.09C81.2188 108.566 81.1055 109.699 81.1055 111.488V119H79.1367V111.488C79.1367 109.613 79.0234 108.457 78.7969 108.02C78.5781 107.582 78.1797 107.363 77.6016 107.363C77.0312 107.363 76.6328 107.605 76.4062 108.09C76.1875 108.566 76.0781 109.699 76.0781 111.488V119H74.1211V105.875H76.0781V107C76.3359 106.531 76.6562 106.176 77.0391 105.934C77.4297 105.684 77.8711 105.559 78.3633 105.559C78.957 105.559 79.4492 105.695 79.8398 105.969C80.2383 106.242 80.5469 106.656 80.7656 107.211ZM95.5312 112.402H94.8164C93.5586 112.402 92.6094 112.625 91.9688 113.07C91.3359 113.508 91.0195 114.164 91.0195 115.039C91.0195 115.828 91.2578 116.441 91.7344 116.879C92.2109 117.316 92.8711 117.535 93.7148 117.535C94.9023 117.535 95.8359 117.125 96.5156 116.305C97.1953 115.477 97.5391 114.336 97.5469 112.883V112.402H95.5312ZM99.7148 111.512V119H97.5469V117.055C97.0859 117.836 96.5039 118.414 95.8008 118.789C95.1055 119.156 94.2578 119.34 93.2578 119.34C91.9219 119.34 90.8555 118.965 90.0586 118.215C89.2617 117.457 88.8633 116.445 88.8633 115.18C88.8633 113.719 89.3516 112.609 90.3281 111.852C91.3125 111.094 92.7539 110.715 94.6523 110.715H97.5469V110.375C97.5391 109.328 97.2734 108.57 96.75 108.102C96.2266 107.625 95.3906 107.387 94.2422 107.387C93.5078 107.387 92.7656 107.492 92.0156 107.703C91.2656 107.914 90.5352 108.223 89.8242 108.629V106.473C90.6211 106.168 91.3828 105.941 92.1094 105.793C92.8438 105.637 93.5547 105.559 94.2422 105.559C95.3281 105.559 96.2539 105.719 97.0195 106.039C97.793 106.359 98.418 106.84 98.8945 107.48C99.1914 107.871 99.4023 108.355 99.5273 108.934C99.6523 109.504 99.7148 110.363 99.7148 111.512ZM115.301 108.582C114.84 108.223 114.371 107.961 113.895 107.797C113.418 107.633 112.895 107.551 112.324 107.551C110.98 107.551 109.953 107.973 109.242 108.816C108.531 109.66 108.176 110.879 108.176 112.473V119H106.008V105.875H108.176V108.441C108.535 107.512 109.086 106.801 109.828 106.309C110.578 105.809 111.465 105.559 112.488 105.559C113.02 105.559 113.516 105.625 113.977 105.758C114.438 105.891 114.879 106.098 115.301 106.379V108.582ZM126.281 112.332C126.281 110.715 126.016 109.488 125.484 108.652C124.961 107.809 124.195 107.387 123.188 107.387C122.133 107.387 121.328 107.809 120.773 108.652C120.219 109.488 119.941 110.715 119.941 112.332C119.941 113.949 120.219 115.184 120.773 116.035C121.336 116.879 122.148 117.301 123.211 117.301C124.203 117.301 124.961 116.875 125.484 116.023C126.016 115.172 126.281 113.941 126.281 112.332ZM128.438 118.156C128.438 120.125 127.973 121.617 127.043 122.633C126.113 123.648 124.746 124.156 122.941 124.156C122.348 124.156 121.727 124.102 121.078 123.992C120.43 123.883 119.781 123.723 119.133 123.512V121.379C119.898 121.738 120.594 122.004 121.219 122.176C121.844 122.348 122.418 122.434 122.941 122.434C124.105 122.434 124.953 122.117 125.484 121.484C126.016 120.852 126.281 119.848 126.281 118.473V118.379V116.914C125.938 117.648 125.469 118.195 124.875 118.555C124.281 118.914 123.559 119.094 122.707 119.094C121.176 119.094 119.953 118.48 119.039 117.254C118.125 116.027 117.668 114.387 117.668 112.332C117.668 110.27 118.125 108.625 119.039 107.398C119.953 106.172 121.176 105.559 122.707 105.559C123.551 105.559 124.266 105.727 124.852 106.062C125.438 106.398 125.914 106.918 126.281 107.621V105.922H128.438V118.156ZM134.391 105.922H139.91V117.324H144.188V119H133.477V117.324H137.754V107.598H134.391V105.922ZM137.754 100.824H139.91V103.543H137.754V100.824ZM157.465 110.867V119H155.297V110.867C155.297 109.688 155.09 108.82 154.676 108.266C154.262 107.711 153.613 107.434 152.73 107.434C151.723 107.434 150.945 107.793 150.398 108.512C149.859 109.223 149.59 110.246 149.59 111.582V119H147.434V105.875H149.59V107.844C149.973 107.094 150.492 106.527 151.148 106.145C151.805 105.754 152.582 105.559 153.48 105.559C154.816 105.559 155.812 106 156.469 106.883C157.133 107.758 157.465 109.086 157.465 110.867ZM164.637 105.887H168.293V110.117H164.637V105.887ZM164.637 114.734H168.293V119H164.637V114.734ZM18.3867 147.598C19.4805 147.598 20.1914 147.43 20.5195 147.094C20.8555 146.758 21.0234 146.031 21.0234 144.914V142.465C21.0234 141.129 21.3047 140.207 21.8672 139.699C22.4297 139.184 23.4688 138.836 24.9844 138.656C23.4219 138.445 22.3711 138.105 21.832 137.637C21.293 137.16 21.0234 136.234 21.0234 134.859V131.719C21.0234 130.609 20.8555 129.887 20.5195 129.551C20.1914 129.207 19.4805 129.035 18.3867 129.035H17.5664V127.359H18.3164C20.2617 127.359 21.5625 127.648 22.2188 128.227C22.8828 128.797 23.2148 129.945 23.2148 131.672V134.719C23.2148 135.734 23.4297 136.504 23.8594 137.027C24.2969 137.551 25.0664 137.812 26.168 137.812H27.5977V139.488H26.168C25.1602 139.488 24.4141 139.797 23.9297 140.414C23.4531 141.031 23.2148 141.766 23.2148 142.617V144.961C23.2148 146.688 22.8828 147.84 22.2188 148.418C21.5625 148.996 20.2617 149.285 18.3164 149.285H17.5664V147.598H18.3867Z"
          fill="#A9B7C6"/>
    <path d="M41.8945 34.332C41.3164 34.668 40.7188 34.918 40.1016 35.082C39.4922 35.2539 38.8672 35.3398 38.2266 35.3398C36.1953 35.3398 34.6055 34.7305 33.457 33.5117C32.3164 32.293 31.7461 30.6055 31.7461 28.4492C31.7461 26.293 32.3164 24.6055 33.457 23.3867C34.6055 22.168 36.1953 21.5586 38.2266 21.5586C38.8594 21.5586 39.4766 21.6406 40.0781 21.8047C40.6797 21.9688 41.2852 22.2227 41.8945 22.5664V24.8281C41.3242 24.3203 40.75 23.9531 40.1719 23.7266C39.6016 23.5 38.9531 23.3867 38.2266 23.3867C36.875 23.3867 35.8359 23.8242 35.1094 24.6992C34.3828 25.5742 34.0195 26.8242 34.0195 28.4492C34.0195 30.0664 34.3828 31.3164 35.1094 32.1992C35.8438 33.0742 36.8828 33.5117 38.2266 33.5117C38.9766 33.5117 39.6484 33.3984 40.2422 33.1719C40.8359 32.9375 41.3867 32.5781 41.8945 32.0938V34.332ZM52.3477 30.2539C52.3477 31.2227 52.5234 31.9531 52.875 32.4453C53.2344 32.9375 53.7617 33.1836 54.457 33.1836H56.9766V35H54.2461C52.957 35 51.957 34.5898 51.2461 33.7695C50.543 32.9414 50.1914 31.7695 50.1914 30.2539V18.3828H46.7344V16.6953H52.3477V30.2539ZM66.6094 28.4023H65.8945C64.6367 28.4023 63.6875 28.625 63.0469 29.0703C62.4141 29.5078 62.0977 30.1641 62.0977 31.0391C62.0977 31.8281 62.3359 32.4414 62.8125 32.8789C63.2891 33.3164 63.9492 33.5352 64.793 33.5352C65.9805 33.5352 66.9141 33.125 67.5938 32.3047C68.2734 31.4766 68.6172 30.3359 68.625 28.8828V28.4023H66.6094ZM70.793 27.5117V35H68.625V33.0547C68.1641 33.8359 67.582 34.4141 66.8789 34.7891C66.1836 35.1562 65.3359 35.3398 64.3359 35.3398C63 35.3398 61.9336 34.9648 61.1367 34.2148C60.3398 33.457 59.9414 32.4453 59.9414 31.1797C59.9414 29.7188 60.4297 28.6094 61.4062 27.8516C62.3906 27.0938 63.832 26.7148 65.7305 26.7148H68.625V26.375C68.6172 25.3281 68.3516 24.5703 67.8281 24.1016C67.3047 23.625 66.4688 23.3867 65.3203 23.3867C64.5859 23.3867 63.8438 23.4922 63.0938 23.7031C62.3438 23.9141 61.6133 24.2227 60.9023 24.6289V22.4727C61.6992 22.168 62.4609 21.9414 63.1875 21.793C63.9219 21.6367 64.6328 21.5586 65.3203 21.5586C66.4062 21.5586 67.332 21.7188 68.0977 22.0391C68.8711 22.3594 69.4961 22.8398 69.9727 23.4805C70.2695 23.8711 70.4805 24.3555 70.6055 24.9336C70.7305 25.5039 70.793 26.3633 70.793 27.5117ZM84.2461 22.332V24.4414C83.6289 24.082 83.0078 23.8125 82.3828 23.6328C81.7578 23.4531 81.1211 23.3633 80.4727 23.3633C79.4961 23.3633 78.7656 23.5234 78.2812 23.8438C77.8047 24.1562 77.5664 24.6367 77.5664 25.2852C77.5664 25.8711 77.7461 26.3086 78.1055 26.5977C78.4648 26.8867 79.3594 27.168 80.7891 27.4414L81.6562 27.6055C82.7266 27.8086 83.5352 28.2148 84.082 28.8242C84.6367 29.4336 84.9141 30.2266 84.9141 31.2031C84.9141 32.5 84.4531 33.5156 83.5312 34.25C82.6094 34.9766 81.3281 35.3398 79.6875 35.3398C79.0391 35.3398 78.3594 35.2695 77.6484 35.1289C76.9375 34.9961 76.168 34.793 75.3398 34.5195V32.293C76.1445 32.707 76.9141 33.0195 77.6484 33.2305C78.3828 33.4336 79.0781 33.5352 79.7344 33.5352C80.6875 33.5352 81.4258 33.3438 81.9492 32.9609C82.4727 32.5703 82.7344 32.0273 82.7344 31.332C82.7344 30.332 81.7773 29.6406 79.8633 29.2578L79.7695 29.2344L78.9609 29.0703C77.7188 28.8281 76.8125 28.4219 76.2422 27.8516C75.6719 27.2734 75.3867 26.4883 75.3867 25.4961C75.3867 24.2383 75.8125 23.2695 76.6641 22.5898C77.5156 21.9023 78.7305 21.5586 80.3086 21.5586C81.0117 21.5586 81.6875 21.625 82.3359 21.7578C82.9844 21.8828 83.6211 22.0742 84.2461 22.332ZM98.707 22.332V24.4414C98.0898 24.082 97.4688 23.8125 96.8438 23.6328C96.2188 23.4531 95.582 23.3633 94.9336 23.3633C93.957 23.3633 93.2266 23.5234 92.7422 23.8438C92.2656 24.1562 92.0273 24.6367 92.0273 25.2852C92.0273 25.8711 92.207 26.3086 92.5664 26.5977C92.9258 26.8867 93.8203 27.168 95.25 27.4414L96.1172 27.6055C97.1875 27.8086 97.9961 28.2148 98.543 28.8242C99.0977 29.4336 99.375 30.2266 99.375 31.2031C99.375 32.5 98.9141 33.5156 97.9922 34.25C97.0703 34.9766 95.7891 35.3398 94.1484 35.3398C93.5 35.3398 92.8203 35.2695 92.1094 35.1289C91.3984 34.9961 90.6289 34.793 89.8008 34.5195V32.293C90.6055 32.707 91.375 33.0195 92.1094 33.2305C92.8438 33.4336 93.5391 33.5352 94.1953 33.5352C95.1484 33.5352 95.8867 33.3438 96.4102 32.9609C96.9336 32.5703 97.1953 32.0273 97.1953 31.332C97.1953 30.332 96.2383 29.6406 94.3242 29.2578L94.2305 29.2344L93.4219 29.0703C92.1797 28.8281 91.2734 28.4219 90.7031 27.8516C90.1328 27.2734 89.8477 26.4883 89.8477 25.4961C89.8477 24.2383 90.2734 23.2695 91.125 22.5898C91.9766 21.9023 93.1914 21.5586 94.7695 21.5586C95.4727 21.5586 96.1484 21.625 96.7969 21.7578C97.4453 21.8828 98.082 22.0742 98.707 22.332Z"
          fill="#E6AE48"/>
    <path d="M192.234 49.9219H197.754V61.3242H202.031V63H191.32V61.3242H195.598V51.5977H192.234V49.9219ZM195.598 44.8242H197.754V47.543H195.598V44.8242ZM215.309 54.8672V63H213.141V54.8672C213.141 53.6875 212.934 52.8203 212.52 52.2656C212.105 51.7109 211.457 51.4336 210.574 51.4336C209.566 51.4336 208.789 51.793 208.242 52.5117C207.703 53.2227 207.434 54.2461 207.434 55.582V63H205.277V49.875H207.434V51.8438C207.816 51.0938 208.336 50.5273 208.992 50.1445C209.648 49.7539 210.426 49.5586 211.324 49.5586C212.66 49.5586 213.656 50 214.312 50.8828C214.977 51.7578 215.309 53.0859 215.309 54.8672ZM221.156 49.9219H226.676V61.3242H230.953V63H220.242V61.3242H224.52V51.5977H221.156V49.9219ZM224.52 44.8242H226.676V47.543H224.52V44.8242ZM239.109 46.1484V49.875H244.008V51.5508H239.109V58.6758C239.109 59.6445 239.293 60.3203 239.66 60.7031C240.027 61.0859 240.668 61.2773 241.582 61.2773H244.008V63H241.371C239.754 63 238.613 62.6758 237.949 62.0273C237.285 61.3789 236.953 60.2617 236.953 58.6758V51.5508H233.449V49.875H236.953V46.1484H239.109ZM250.078 49.9219H255.598V61.3242H259.875V63H249.164V61.3242H253.441V51.5977H250.078V49.9219ZM253.441 44.8242H255.598V47.543H253.441V44.8242ZM269.062 56.4023H268.348C267.09 56.4023 266.141 56.625 265.5 57.0703C264.867 57.5078 264.551 58.1641 264.551 59.0391C264.551 59.8281 264.789 60.4414 265.266 60.8789C265.742 61.3164 266.402 61.5352 267.246 61.5352C268.434 61.5352 269.367 61.125 270.047 60.3047C270.727 59.4766 271.07 58.3359 271.078 56.8828V56.4023H269.062ZM273.246 55.5117V63H271.078V61.0547C270.617 61.8359 270.035 62.4141 269.332 62.7891C268.637 63.1562 267.789 63.3398 266.789 63.3398C265.453 63.3398 264.387 62.9648 263.59 62.2148C262.793 61.457 262.395 60.4453 262.395 59.1797C262.395 57.7188 262.883 56.6094 263.859 55.8516C264.844 55.0938 266.285 54.7148 268.184 54.7148H271.078V54.375C271.07 53.3281 270.805 52.5703 270.281 52.1016C269.758 51.625 268.922 51.3867 267.773 51.3867C267.039 51.3867 266.297 51.4922 265.547 51.7031C264.797 51.9141 264.066 52.2227 263.355 52.6289V50.4727C264.152 50.168 264.914 49.9414 265.641 49.793C266.375 49.6367 267.086 49.5586 267.773 49.5586C268.859 49.5586 269.785 49.7188 270.551 50.0391C271.324 50.3594 271.949 50.8398 272.426 51.4805C272.723 51.8711 272.934 52.3555 273.059 52.9336C273.184 53.5039 273.246 54.3633 273.246 55.5117ZM283.723 58.2539C283.723 59.2227 283.898 59.9531 284.25 60.4453C284.609 60.9375 285.137 61.1836 285.832 61.1836H288.352V63H285.621C284.332 63 283.332 62.5898 282.621 61.7695C281.918 60.9414 281.566 59.7695 281.566 58.2539V46.3828H278.109V44.6953H283.723V58.2539ZM176.355 86.0312V77.8984H178.512V86.0312C178.512 87.2109 178.719 88.0781 179.133 88.6328C179.555 89.1875 180.203 89.4648 181.078 89.4648C182.094 89.4648 182.871 89.1094 183.41 88.3984C183.949 87.6797 184.219 86.6523 184.219 85.3164V77.8984H186.387V91H184.219V89.0312C183.836 89.7891 183.312 90.3633 182.648 90.7539C181.992 91.1445 181.223 91.3398 180.34 91.3398C178.996 91.3398 177.996 90.9023 177.34 90.0273C176.684 89.1445 176.355 87.8125 176.355 86.0312ZM200.848 82.8672V91H198.68V82.8672C198.68 81.6875 198.473 80.8203 198.059 80.2656C197.645 79.7109 196.996 79.4336 196.113 79.4336C195.105 79.4336 194.328 79.793 193.781 80.5117C193.242 81.2227 192.973 82.2461 192.973 83.582V91H190.816V77.875H192.973V79.8438C193.355 79.0938 193.875 78.5273 194.531 78.1445C195.188 77.7539 195.965 77.5586 196.863 77.5586C198.199 77.5586 199.195 78 199.852 78.8828C200.516 79.7578 200.848 81.0859 200.848 82.8672ZM214.395 78.332V80.4414C213.777 80.082 213.156 79.8125 212.531 79.6328C211.906 79.4531 211.27 79.3633 210.621 79.3633C209.645 79.3633 208.914 79.5234 208.43 79.8438C207.953 80.1562 207.715 80.6367 207.715 81.2852C207.715 81.8711 207.895 82.3086 208.254 82.5977C208.613 82.8867 209.508 83.168 210.938 83.4414L211.805 83.6055C212.875 83.8086 213.684 84.2148 214.23 84.8242C214.785 85.4336 215.062 86.2266 215.062 87.2031C215.062 88.5 214.602 89.5156 213.68 90.25C212.758 90.9766 211.477 91.3398 209.836 91.3398C209.188 91.3398 208.508 91.2695 207.797 91.1289C207.086 90.9961 206.316 90.793 205.488 90.5195V88.293C206.293 88.707 207.062 89.0195 207.797 89.2305C208.531 89.4336 209.227 89.5352 209.883 89.5352C210.836 89.5352 211.574 89.3438 212.098 88.9609C212.621 88.5703 212.883 88.0273 212.883 87.332C212.883 86.332 211.926 85.6406 210.012 85.2578L209.918 85.2344L209.109 85.0703C207.867 84.8281 206.961 84.4219 206.391 83.8516C205.82 83.2734 205.535 82.4883 205.535 81.4961C205.535 80.2383 205.961 79.2695 206.812 78.5898C207.664 77.9023 208.879 77.5586 210.457 77.5586C211.16 77.5586 211.836 77.625 212.484 77.7578C213.133 77.8828 213.77 78.0742 214.395 78.332ZM230.578 83.3594V84.4141H221.238V84.4844C221.176 86.2734 221.516 87.5586 222.258 88.3398C223.008 89.1211 224.062 89.5117 225.422 89.5117C226.109 89.5117 226.828 89.4023 227.578 89.1836C228.328 88.9648 229.129 88.6328 229.98 88.1875V90.332C229.16 90.668 228.367 90.918 227.602 91.082C226.844 91.2539 226.109 91.3398 225.398 91.3398C223.359 91.3398 221.766 90.7305 220.617 89.5117C219.469 88.2852 218.895 86.5977 218.895 84.4492C218.895 82.3555 219.457 80.6836 220.582 79.4336C221.707 78.1836 223.207 77.5586 225.082 77.5586C226.754 77.5586 228.07 78.125 229.031 79.2578C230 80.3906 230.516 81.7578 230.578 83.3594ZM228.422 82.7266C228.328 81.8203 227.996 81.0391 227.426 80.3828C226.863 79.7188 226.051 79.3867 224.988 79.3867C223.949 79.3867 223.094 79.7305 222.422 80.418C221.75 81.1055 221.383 81.8789 221.32 82.7383L228.422 82.7266ZM239.109 74.1484V77.875H244.008V79.5508H239.109V86.6758C239.109 87.6445 239.293 88.3203 239.66 88.7031C240.027 89.0859 240.668 89.2773 241.582 89.2773H244.008V91H241.371C239.754 91 238.613 90.6758 237.949 90.0273C237.285 89.3789 236.953 88.2617 236.953 86.6758V79.5508H233.449V77.875H236.953V74.1484H239.109ZM192.234 105.922H197.754V117.324H202.031V119H191.32V117.324H195.598V107.598H192.234V105.922ZM195.598 100.824H197.754V103.543H195.598V100.824ZM215.309 110.867V119H213.141V110.867C213.141 109.688 212.934 108.82 212.52 108.266C212.105 107.711 211.457 107.434 210.574 107.434C209.566 107.434 208.789 107.793 208.242 108.512C207.703 109.223 207.434 110.246 207.434 111.582V119H205.277V105.875H207.434V107.844C207.816 107.094 208.336 106.527 208.992 106.145C209.648 105.754 210.426 105.559 211.324 105.559C212.66 105.559 213.656 106 214.312 106.883C214.977 107.758 215.309 109.086 215.309 110.867ZM229.77 110.867V119H227.602V110.867C227.602 109.688 227.395 108.82 226.98 108.266C226.566 107.711 225.918 107.434 225.035 107.434C224.027 107.434 223.25 107.793 222.703 108.512C222.164 109.223 221.895 110.246 221.895 111.582V119H219.738V100.766H221.895V107.844C222.277 107.094 222.797 106.527 223.453 106.145C224.109 105.754 224.887 105.559 225.785 105.559C227.121 105.559 228.117 106 228.773 106.883C229.438 107.758 229.77 109.086 229.77 110.867ZM245.039 111.359V112.414H235.699V112.484C235.637 114.273 235.977 115.559 236.719 116.34C237.469 117.121 238.523 117.512 239.883 117.512C240.57 117.512 241.289 117.402 242.039 117.184C242.789 116.965 243.59 116.633 244.441 116.188V118.332C243.621 118.668 242.828 118.918 242.062 119.082C241.305 119.254 240.57 119.34 239.859 119.34C237.82 119.34 236.227 118.73 235.078 117.512C233.93 116.285 233.355 114.598 233.355 112.449C233.355 110.355 233.918 108.684 235.043 107.434C236.168 106.184 237.668 105.559 239.543 105.559C241.215 105.559 242.531 106.125 243.492 107.258C244.461 108.391 244.977 109.758 245.039 111.359ZM242.883 110.727C242.789 109.82 242.457 109.039 241.887 108.383C241.324 107.719 240.512 107.387 239.449 107.387C238.41 107.387 237.555 107.73 236.883 108.418C236.211 109.105 235.844 109.879 235.781 110.738L242.883 110.727ZM259.91 108.582C259.449 108.223 258.98 107.961 258.504 107.797C258.027 107.633 257.504 107.551 256.934 107.551C255.59 107.551 254.562 107.973 253.852 108.816C253.141 109.66 252.785 110.879 252.785 112.473V119H250.617V105.875H252.785V108.441C253.145 107.512 253.695 106.801 254.438 106.309C255.188 105.809 256.074 105.559 257.098 105.559C257.629 105.559 258.125 105.625 258.586 105.758C259.047 105.891 259.488 106.098 259.91 106.379V108.582ZM264.539 105.922H270.059V117.324H274.336V119H263.625V117.324H267.902V107.598H264.539V105.922ZM267.902 100.824H270.059V103.543H267.902V100.824ZM282.492 102.148V105.875H287.391V107.551H282.492V114.676C282.492 115.645 282.676 116.32 283.043 116.703C283.41 117.086 284.051 117.277 284.965 117.277H287.391V119H284.754C283.137 119 281.996 118.676 281.332 118.027C280.668 117.379 280.336 116.262 280.336 114.676V107.551H276.832V105.875H280.336V102.148H282.492Z"
          fill="#8DB740"/>
    <path d="M294.938 58.7695H298.594V61.875L296.285 66.3516H293.777L294.938 61.875V58.7695ZM294.785 49.8867H298.441V54.1172H294.785V49.8867ZM251.555 86.7695H255.211V89.875L252.902 94.3516H250.395L251.555 89.875V86.7695ZM251.402 77.8867H255.059V82.1172H251.402V77.8867ZM294.938 114.77H298.594V117.875L296.285 122.352H293.777L294.938 117.875V114.77ZM294.785 105.887H298.441V110.117H294.785V105.887Z"
          fill="#CC7832"/>
</svg>
